# xmcd
#
# Track frame offsets:
# 150
# 16124
# 28391
# 43049
# 60549
# 80001
# 93261
# 109557
# 124946
# 141802
#
# Disc length: 2152 seconds
#
#
# Revision: 0
# Processed by: cddbd v1.5PL3 Copyright (c) Steve Scherf et al.
# Submitted via: FreeRIP 2.53 
#
DISCID=7f08660a
DTITLE=Judds, The - Greatest Hits
DYEAR=1900
DGENRE=Country
TTITLE0=Why Not Me
TTITLE1=Rockin With The Rhythm Of The Rain
TTITLE2=Mamas He Crazy
TTITLE3=Give A Little Love
TTITLE4=Grandpa
TTITLE5=Girls Night Out
TTITLE6=Change Of Heart
TTITLE7=Have Mercy
TTITLE8=Cry Myself To Sleep
TTITLE9=Love Is Alive
EXTD=
EXTT0=
EXTT1=
EXTT2=
EXTT3=
EXTT4=
EXTT5=
EXTT6=
EXTT7=
EXTT8=
EXTT9=
PLAYORDER=
